<?xml version="1.0" encoding="UTF-8" standalone="no" ?>
<!DOCTYPE svg PUBLIC "-//W3C//DTD SVG 1.1//EN" "http://www.w3.org/Graphics/SVG/1.1/DTD/svg11.dtd">
<svg xmlns="http://www.w3.org/2000/svg" xmlns:xlink="http://www.w3.org/1999/xlink" version="1.1" width="1080" height="1080" viewBox="0 0 1080 1080" xml:space="preserve">
<desc>Created with Fabric.js 5.2.4</desc>
<defs>
</defs>
<g transform="matrix(1 0 0 1 540 540)" id="55346dbd-0a51-46cb-89d4-bd545cbc031a"  >
<rect style="stroke: none; stroke-width: 1; stroke-dasharray: none; stroke-linecap: butt; stroke-dashoffset: 0; stroke-linejoin: miter; stroke-miterlimit: 4; fill: rgb(255,255,255); fill-rule: nonzero; opacity: 1; visibility: hidden;" vector-effect="non-scaling-stroke"  x="-540" y="-540" rx="0" ry="0" width="1080" height="1080" />
</g>
<g transform="matrix(1 0 0 1 540 540)" id="8cee5d6a-26d3-42c4-852a-43a88bdf154c"  >
</g>
<g transform="matrix(54 0 0 54 540 540)"  >
<path style="stroke: none; stroke-width: 1; stroke-dasharray: none; stroke-linecap: butt; stroke-dashoffset: 0; stroke-linejoin: miter; stroke-miterlimit: 4; fill: rgb(0,0,0); fill-rule: evenodd; opacity: 1;"  transform=" translate(-10, -9)" d="M 16.84 8.417 L 10 15.204 L 3.16 8.417 C 2.419766887034043 7.723064692438395 1.9998511277476247 6.753638482637509 2.0000000000000004 5.739000000000002 C 2 3.677 3.71 2 5.815 2 C 6.852283603287864 1.9963966758428702 7.846433399313948 2.4147770729359106 8.568999999999999 3.158999999999999 L 9.999 4.6259999999999994 L 11.432 3.1589999999999994 C 12.154433673658056 2.414582485375206 13.148670184438043 1.9961655950360613 14.186 2 C 16.289 2 18 3.677 18 5.739 C 17.99978980001988 6.753564050397228 17.579933201689055 7.722853679992005 16.84 8.417 M 9.986 18 L 10 17.986 L 10.014 18 L 18.237000000000002 9.884 L 18.219 9.865 C 19.354464670623354 8.792954381863503 19.99828671279725 7.30058935601548 19.999000000000002 5.7390000000000025 C 20 2.569 17.398 0 14.187 0 C 12.610483685693001 -0.0030442339890195892 11.099963402202672 0.6326225296866328 9.999999999999998 1.7620000000000005 C 8.90065179683243 0.6329282291527647 7.39086867218063 -0.002731953795016784 5.815 1.3322676295501878e-15 C 2.604 0 0 2.569 0 5.739 C 0.0014698614337006585 7.300839875747961 0.6459959517559588 8.79316010507997 1.7820000000000018 9.865000000000002" stroke-linecap="round" />
</g>
</svg>