<svg width="32" height="32" viewBox="0 0 32 32" fill="none" xmlns="http://www.w3.org/2000/svg">
<rect width="32" height="32" rx="16" fill="#F2F2F2"/>
<path d="M16 12.25C16.625 9.78282 18.9856 8.52305 24.125 8.5C24.2072 8.49969 24.2886 8.51565 24.3645 8.54695C24.4405 8.57825 24.5095 8.62427 24.5676 8.68237C24.6257 8.74047 24.6718 8.80949 24.7031 8.88546C24.7344 8.96143 24.7503 9.04284 24.75 9.125V20.375C24.75 20.5408 24.6842 20.6997 24.5669 20.8169C24.4497 20.9342 24.2908 21 24.125 21C19.125 21 17.1934 22.0082 16 23.5M16 12.25C15.375 9.78282 13.0145 8.52305 7.875 8.5C7.79284 8.49969 7.71143 8.51565 7.63546 8.54695C7.55949 8.57825 7.49047 8.62427 7.43237 8.68237C7.37427 8.74047 7.32825 8.80949 7.29695 8.88546C7.26565 8.96143 7.24969 9.04284 7.25 9.125V20.2996C7.25 20.6856 7.48907 21 7.875 21C12.875 21 14.8137 22.0156 16 23.5M16 12.25V23.5" stroke="#141414" stroke-width="1.5" stroke-linecap="round" stroke-linejoin="round"/>
</svg>
