<svg width="20" height="20" viewBox="0 0 20 20" fill="none" xmlns="http://www.w3.org/2000/svg">
<path d="M18.304 8.97274L14.7884 12.0063L15.8595 16.5431C15.9186 16.7893 15.9034 17.0476 15.8158 17.2852C15.7282 17.5229 15.5721 17.7292 15.3673 17.8782C15.1625 18.0272 14.9181 18.1121 14.665 18.1222C14.4119 18.1324 14.1615 18.0673 13.9454 17.9352L10.0001 15.5071L6.05248 17.9352C5.83641 18.0666 5.58631 18.131 5.33368 18.1205C5.08105 18.11 4.83719 18.0249 4.63279 17.8761C4.4284 17.7272 4.27262 17.5212 4.18506 17.284C4.0975 17.0468 4.08209 16.789 4.14076 16.5431L5.21576 12.0063L1.70013 8.97274C1.50896 8.80752 1.3707 8.58963 1.30262 8.34629C1.23454 8.10296 1.23966 7.84496 1.31733 7.60452C1.39501 7.36407 1.5418 7.15184 1.73938 6.99432C1.93695 6.83681 2.17655 6.74099 2.42826 6.71884L7.03763 6.34696L8.81576 2.04384C8.912 1.80932 9.07581 1.60872 9.28636 1.46754C9.49691 1.32636 9.74468 1.25098 9.99818 1.25098C10.2517 1.25098 10.4995 1.32636 10.71 1.46754C10.9205 1.60872 11.0844 1.80932 11.1806 2.04384L12.9579 6.34696L17.5673 6.71884C17.8195 6.74017 18.0598 6.83545 18.2581 6.99275C18.4564 7.15005 18.6039 7.36236 18.682 7.6031C18.7602 7.84383 18.7656 8.10228 18.6975 8.34606C18.6294 8.58984 18.4909 8.80811 18.2994 8.97352L18.304 8.97274Z" fill="#FEC107"/>
</svg>
