<svg width="20" height="20" viewBox="0 0 20 20" fill="none" xmlns="http://www.w3.org/2000/svg">
<path d="M19.0295 5.69062L15.4131 3.88281C14.9639 3.06563 13.8443 2.5 12.4998 2.5C10.7475 2.5 9.37482 3.46094 9.37482 4.6875C9.37503 4.86088 9.40299 5.03311 9.45763 5.19766L7.93263 5.96016C7.40077 5.7337 6.82785 5.61959 6.24982 5.625C4.49747 5.625 3.12482 6.58594 3.12482 7.8125C3.12503 7.98588 3.15299 8.15811 3.20763 8.32266L0.97013 9.44062C0.866292 9.49258 0.778983 9.57244 0.71799 9.67125C0.656997 9.77005 0.624734 9.88389 0.624817 10V15C0.624734 15.1161 0.656997 15.23 0.71799 15.3288C0.778983 15.4276 0.866292 15.5074 0.97013 15.5594L5.97013 18.0594C6.05696 18.1028 6.15272 18.1254 6.24982 18.1254C6.34691 18.1254 6.44267 18.1028 6.5295 18.0594L19.0295 11.8094C19.1333 11.7574 19.2207 11.6776 19.2816 11.5788C19.3426 11.48 19.3749 11.3661 19.3748 11.25V6.25C19.3749 6.13389 19.3426 6.02005 19.2816 5.92125C19.2207 5.82244 19.1333 5.74258 19.0295 5.69062ZM6.24982 11.8016L2.64747 10L3.98419 9.33203C4.54982 9.74531 5.34982 10 6.24982 10C8.00216 10 9.37482 9.03906 9.37482 7.8125C9.37185 7.44941 9.25276 7.09679 9.03497 6.80625L10.2342 6.20703C10.7998 6.62031 11.5998 6.875 12.4998 6.875C13.9358 6.875 15.1162 6.22969 15.4959 5.32188L17.3522 6.25L6.24982 11.8016ZM12.4998 3.75C13.5733 3.75 14.3748 4.24531 14.3748 4.6875C14.3748 5.12969 13.5733 5.625 12.4998 5.625C11.4264 5.625 10.6248 5.12969 10.6248 4.6875C10.6248 4.24531 11.4264 3.75 12.4998 3.75ZM6.24982 6.875C7.32325 6.875 8.12482 7.37031 8.12482 7.8125C8.12482 8.25469 7.32325 8.75 6.24982 8.75C5.49435 8.75 4.87404 8.50469 4.57247 8.20312C4.55253 8.17723 4.53059 8.15293 4.50685 8.13047C4.42782 8.04267 4.38122 7.93046 4.37482 7.8125C4.37482 7.37031 5.17638 6.875 6.24982 6.875ZM1.87482 11.0109L5.62482 12.8859V16.4891L1.87482 14.6141V11.0109ZM6.87482 16.4891V12.8859L18.1248 7.26094V10.8641L6.87482 16.4891Z" fill="#141414"/>
</svg>
