<svg width="20" height="20" viewBox="0 0 20 20" fill="none" xmlns="http://www.w3.org/2000/svg">
<g clip-path="url(#clip0_191_51896)">
<path d="M18.1248 8.75041C18.1248 8.25312 17.9273 7.77621 17.5757 7.42458C17.224 7.07295 16.7471 6.87541 16.2498 6.87541H10.6248V6.17228C11.1613 6.03294 11.6364 5.7196 11.9757 5.28134C12.315 4.84308 12.4993 4.30466 12.4998 3.75041C12.4998 1.56291 10.4342 0.163687 10.3467 0.105094C10.244 0.0365692 10.1233 0 9.99985 0C9.87638 0 9.75568 0.0365692 9.65297 0.105094C9.56547 0.163687 7.49985 1.56291 7.49985 3.75041C7.50037 4.30466 7.68472 4.84308 8.02402 5.28134C8.36332 5.7196 8.8384 6.03294 9.37485 6.17228V6.87541H3.74985C3.25257 6.87541 2.77565 7.07295 2.42402 7.42458C2.07239 7.77621 1.87485 8.25312 1.87485 8.75041V10.5731C1.87549 11.2549 2.09452 11.9186 2.49985 12.4668V15.6254C2.49985 16.1227 2.69739 16.5996 3.04902 16.9512C3.40065 17.3029 3.87757 17.5004 4.37485 17.5004H15.6248C16.1221 17.5004 16.599 17.3029 16.9507 16.9512C17.3023 16.5996 17.4998 16.1227 17.4998 15.6254V12.4668C17.9052 11.9186 18.1242 11.2549 18.1248 10.5731V8.75041ZM8.74985 3.75041C8.74985 2.69025 9.5311 1.83947 9.99985 1.42306C10.4686 1.83947 11.2498 2.69025 11.2498 3.75041C11.2498 4.08193 11.1182 4.39987 10.8837 4.63429C10.6493 4.86871 10.3314 5.00041 9.99985 5.00041C9.66833 5.00041 9.35038 4.86871 9.11596 4.63429C8.88154 4.39987 8.74985 4.08193 8.74985 3.75041ZM3.12485 8.75041C3.12485 8.58464 3.1907 8.42567 3.30791 8.30846C3.42512 8.19125 3.58409 8.12541 3.74985 8.12541H16.2498C16.4156 8.12541 16.5746 8.19125 16.6918 8.30846C16.809 8.42567 16.8748 8.58464 16.8748 8.75041V10.5731C16.8748 11.6082 16.0577 12.4723 15.053 12.4996C14.8024 12.5067 14.5529 12.4635 14.3193 12.3725C14.0857 12.2815 13.8727 12.1446 13.693 11.9699C13.5132 11.7951 13.3703 11.5861 13.2727 11.3552C13.1751 11.1243 13.1249 10.8761 13.1248 10.6254C13.1248 10.4596 13.059 10.3007 12.9418 10.1835C12.8246 10.0663 12.6656 10.0004 12.4998 10.0004C12.3341 10.0004 12.1751 10.0663 12.0579 10.1835C11.9407 10.3007 11.8748 10.4596 11.8748 10.6254C11.8748 11.1227 11.6773 11.5996 11.3257 11.9512C10.974 12.3029 10.4971 12.5004 9.99985 12.5004C9.50257 12.5004 9.02565 12.3029 8.67402 11.9512C8.32239 11.5996 8.12485 11.1227 8.12485 10.6254C8.12485 10.4596 8.059 10.3007 7.94179 10.1835C7.82458 10.0663 7.66561 10.0004 7.49985 10.0004C7.33409 10.0004 7.17512 10.0663 7.05791 10.1835C6.9407 10.3007 6.87485 10.4596 6.87485 10.6254C6.87495 10.8762 6.82475 11.1244 6.72721 11.3554C6.62968 11.5864 6.4868 11.7955 6.30702 11.9704C6.12725 12.1452 5.91423 12.2822 5.68058 12.3732C5.44693 12.4643 5.19739 12.5075 4.94672 12.5004C3.94203 12.4723 3.12485 11.6082 3.12485 10.5731V8.75041ZM15.6248 16.2504H4.37485C4.20909 16.2504 4.05012 16.1846 3.93291 16.0673C3.8157 15.9501 3.74985 15.7912 3.74985 15.6254V13.4817C4.11572 13.6474 4.51087 13.7387 4.91235 13.7504C5.33004 13.7634 5.74604 13.6918 6.13537 13.5399C6.5247 13.3881 6.87933 13.1591 7.17797 12.8668C7.29455 12.7532 7.40217 12.6307 7.49985 12.5004C7.79093 12.8885 8.16838 13.2035 8.60231 13.4205C9.03623 13.6375 9.51471 13.7504 9.99985 13.7504C10.485 13.7504 10.9635 13.6375 11.3974 13.4205C11.8313 13.2035 12.2088 12.8885 12.4998 12.5004C12.5978 12.6301 12.7057 12.7521 12.8225 12.8652C13.4039 13.4347 14.186 13.7527 14.9998 13.7504H15.0889C15.4899 13.7385 15.8845 13.6472 16.2498 13.4817V15.6254C16.2498 15.7912 16.184 15.9501 16.0668 16.0673C15.9496 16.1846 15.7906 16.2504 15.6248 16.2504Z" fill="#141414"/>
</g>
<defs>
<clipPath id="clip0_191_51896">
<rect width="20" height="20" fill="white"/>
</clipPath>
</defs>
</svg>
