<?xml version="1.0" encoding="UTF-8" standalone="no" ?>
<!DOCTYPE svg PUBLIC "-//W3C//DTD SVG 1.1//EN" "http://www.w3.org/Graphics/SVG/1.1/DTD/svg11.dtd">
<svg xmlns="http://www.w3.org/2000/svg" xmlns:xlink="http://www.w3.org/1999/xlink" version="1.1" width="1080" height="1080" viewBox="0 0 1080 1080" xml:space="preserve">
<desc>Created with Fabric.js 5.2.4</desc>
<defs>
</defs>
<g transform="matrix(1 0 0 1 540 540)" id="2e430092-6431-4a27-ba85-9f64edd458bf"  >
<rect style="stroke: none; stroke-width: 1; stroke-dasharray: none; stroke-linecap: butt; stroke-dashoffset: 0; stroke-linejoin: miter; stroke-miterlimit: 4; fill: rgb(255,255,255); fill-rule: nonzero; opacity: 1; visibility: hidden;" vector-effect="non-scaling-stroke"  x="-540" y="-540" rx="0" ry="0" width="1080" height="1080" />
</g>
<g transform="matrix(1 0 0 1 540 540)" id="3e3439ed-30e3-4bea-adda-a82fe9e97196"  >
</g>
<g transform="matrix(54 0 0 54 540 540)"  >
<g style=""   >
		<g transform="matrix(1 0 0 1 0 -6.98)"  >
<rect style="stroke: rgb(44,44,44); stroke-width: 1.5; stroke-dasharray: none; stroke-linecap: butt; stroke-dashoffset: 0; stroke-linejoin: miter; stroke-miterlimit: 4; fill: rgb(255,207,0); fill-rule: nonzero; opacity: 1;" vector-effect="non-scaling-stroke"  x="-4.125" y="-3.019" rx="0.729" ry="0.729" width="8.25" height="6.038" />
</g>
		<g transform="matrix(1 0 0 1 0 7.17)"  >
<rect style="stroke: rgb(44,44,44); stroke-width: 1.2; stroke-dasharray: none; stroke-linecap: butt; stroke-dashoffset: 0; stroke-linejoin: miter; stroke-miterlimit: 4; fill: rgb(255,207,0); fill-rule: nonzero; opacity: 1;" vector-effect="non-scaling-stroke"  x="-5.25" y="-2.83" rx="0.729" ry="0.729" width="10.5" height="5.66" />
</g>
		<g transform="matrix(1 0 0 1 0 0.38)"  >
<path style="stroke: rgb(44,44,44); stroke-width: 1.5; stroke-dasharray: none; stroke-linecap: butt; stroke-dashoffset: 0; stroke-linejoin: miter; stroke-miterlimit: 4; fill: rgb(255,207,0); fill-rule: nonzero; opacity: 1;" vector-effect="non-scaling-stroke"  transform=" translate(-9, -10.38)" d="M 14.25 17.736 L 3.75 17.736 C 0 17.736 0 14.717 0 14.717 L 0 6.037000000000001 C 0 6.037000000000001 0 3.02 3.75 3.02 L 14.25 3.02 C 18 3.019 18 6.038 18 6.038 L 18 14.717 C 18 14.717 18 17.736 14.25 17.736 z" stroke-linecap="round" />
</g>
		<g transform="matrix(1 0 0 1 0 0.95)"  >
<path style="stroke: none; stroke-width: 1; stroke-dasharray: none; stroke-linecap: butt; stroke-dashoffset: 0; stroke-linejoin: miter; stroke-miterlimit: 4; fill: rgb(44,44,44); fill-rule: nonzero; opacity: 1;" vector-effect="non-scaling-stroke"  transform=" translate(-9, -10.95)" d="M 7.125 8.868 C 7.1257967682509 8.618523308105924 7.027387660064784 8.378962532361287 6.851449640988513 8.202086677362434 C 6.675511621912241 8.025210822363581 6.436477402251363 7.9255295318398655 6.187 7.925000000000001 C 5.937696106271586 7.925794381056343 5.698918759671139 8.02559246737096 5.5231968987162725 8.202439548353285 C 5.347475037761406 8.379286629335612 5.249203079632876 8.61869611437577 5.25 8.868 C 5.25 9.388 5.67 9.811 6.188 9.811 C 6.437303893728414 9.810205618943659 6.67608124032886 9.710407532629041 6.8518031012837275 9.533560451646716 C 7.027524962238594 9.356713370664389 7.125796920367124 9.117303885624231 7.125 8.868 z M 11.812999999999999 7.925000000000001 C 11.563522597748635 7.9255295318398655 11.324488378087757 8.025210822363581 11.148550359011486 8.202086677362434 C 10.972612339935214 8.378962532361287 10.8742032317491 8.618523308105923 10.874999999999998 8.868 C 10.874999999999998 9.388 11.294999999999998 9.811 11.812999999999999 9.811 C 12.062303893728412 9.810205618943659 12.301081240328859 9.710407532629041 12.476803101283725 9.533560451646716 C 12.652524962238592 9.356713370664389 12.750796920367122 9.117303885624231 12.749999999999998 8.868 C 12.750796768250897 8.618523308105923 12.652387660064782 8.378962532361287 12.47644964098851 8.202086677362434 C 12.30051162191224 8.025210822363581 12.06147740225136 7.925529531839865 11.811999999999998 7.925000000000001 z M 12.105999999999998 11.785 C 11.99393481367936 11.71751156542512 11.858126612861335 11.70188553990253 11.733662393505494 11.742159016119368 C 11.60919817414965 11.782432492336204 11.508287008474678 11.874654923041426 11.456999999999997 11.995000000000001 C 11.451999999999996 12.003 10.995999999999997 12.835 8.993999999999996 12.835 C 7.040999999999996 12.835 6.556999999999997 12.042000000000002 6.5319999999999965 11.995000000000001 C 6.486760284344017 11.872253640556435 6.389911927298896 11.775557999435991 6.267094327932826 11.730512046063483 C 6.144276728566756 11.685466092690973 6.00787507132332 11.696612355530036 5.893999999999997 11.761000000000001 C 5.648177502738305 11.9296155599044 5.557752313386106 12.249678671983578 5.678999999999997 12.522 C 5.741999999999996 12.669 6.368999999999996 13.968 8.993999999999996 13.968 C 11.618999999999996 13.968 12.243999999999996 12.669 12.306999999999997 12.522 C 12.422106037248502 12.259357795805599 12.338394178416829 11.951997836513192 12.105999999999996 11.784 z" stroke-linecap="round" />
</g>
</g>
</g>
</svg>