<?xml version="1.0" encoding="UTF-8" standalone="no" ?>
<!DOCTYPE svg PUBLIC "-//W3C//DTD SVG 1.1//EN" "http://www.w3.org/Graphics/SVG/1.1/DTD/svg11.dtd">
<svg xmlns="http://www.w3.org/2000/svg" xmlns:xlink="http://www.w3.org/1999/xlink" version="1.1" width="1080" height="1080" viewBox="0 0 1080 1080" xml:space="preserve">
<desc>Created with Fabric.js 5.2.4</desc>
<defs>
</defs>
<g transform="matrix(1 0 0 1 540 540)" id="e310cd57-9f0d-4a18-b989-548d8a4d2722"  >
<rect style="stroke: none; stroke-width: 1; stroke-dasharray: none; stroke-linecap: butt; stroke-dashoffset: 0; stroke-linejoin: miter; stroke-miterlimit: 4; fill: rgb(255,255,255); fill-rule: nonzero; opacity: 1; visibility: hidden;" vector-effect="non-scaling-stroke"  x="-540" y="-540" rx="0" ry="0" width="1080" height="1080" />
</g>
<g transform="matrix(1 0 0 1 540 540)" id="daabf486-540d-41cb-9f16-d4d729f68e5c"  >
</g>
<g transform="matrix(60 0 0 60 540 540)"  >
<path style="stroke: none; stroke-width: 1; stroke-dasharray: none; stroke-linecap: butt; stroke-dashoffset: 0; stroke-linejoin: miter; stroke-miterlimit: 4; fill: rgb(0,0,0); fill-rule: evenodd; opacity: 1;"  transform=" translate(-9, -9)" d="M 18 16.615 C 18 16.99 17.863 17.314999999999998 17.588 17.587999999999997 C 17.334406679800196 17.853703422818935 16.982287392124462 18.00280223733322 16.615000000000002 17.999999999999996 C 16.246470441761975 18.00918777920135 15.89187224810392 17.85903931487749 15.642000000000001 17.587999999999997 L 11.932000000000002 13.887999999999998 C 10.667918775280551 14.774089980622842 9.158658265968619 15.243264778745752 7.615 15.229999999999997 C 6.585000000000002 15.229999999999999 5.5980000000000025 15.03 4.657000000000002 14.629999999999999 C 3.7484081493252828 14.25137375657754 2.9218281258373824 13.700207208458863 2.223000000000001 13.007000000000001 C 1.5300420009631883 12.308556337542985 0.9791949195615488 11.482285715440526 0.6010000000000018 10.574 C 0.20152345878094025 9.639152360068087 -0.0029819444699900055 8.632618278843047 -2.220446049250313e-16 7.616000000000003 C 0 6.584 0.2 5.598 0.6 4.656 C 0.9794970085345208 3.7481702935851247 1.530565856297625 2.9220763277147412 2.2229999999999994 2.223 C 2.921915943112597 1.5301514173558015 3.7484900761052913 0.9793283920007692 4.656999999999995 0.6010000000000026 C 5.5919982762661515 0.20200696921913186 6.598431716598638 -0.00247798603435756 7.615 8.881784197001252e-16 C 8.647 0 9.633 0.2 10.574 0.601 C 11.514 1.001 12.326 1.5419999999999998 13.008 2.223 C 13.70069129587076 2.922044276891325 14.251492614802737 3.748585836866927 14.63 4.657 C 15.03 5.598 15.230999999999998 6.584 15.230999999999998 7.616 C 15.244524044017767 9.159386662512135 14.775315556860855 10.668405910328252 13.888999999999998 11.931999999999999 L 17.598999999999997 15.642 C 17.865999999999996 15.908 17.999999999999996 16.233999999999998 17.999999999999996 16.615 M 12.460999999999997 7.614999999999998 C 12.460999999999997 6.280999999999999 11.986999999999997 5.139999999999999 11.037999999999997 4.191999999999998 C 10.09 3.244 8.95 2.77 7.615 2.77 C 6.282 2.77 5.140000000000001 3.2439999999999998 4.192 4.192 C 3.243 5.14 2.77 6.28 2.77 7.616 C 2.77 8.95 3.2439999999999998 10.091 4.193 11.039 C 5.141 11.988 6.2829999999999995 12.461 7.616 12.461 C 8.951 12.461 10.091 11.988 11.039 11.039 C 11.988999999999999 10.091 12.462 8.949 12.462 7.616" stroke-linecap="round" />
</g>
</svg>